<svg viewBox="0 0 16 16" fill="currentColor" xmlns="http://www.w3.org/2000/svg">
<path d="M7 14L4 11H1V5H4L7 2V14Z"/>
<path d="M12.916 2.69727C13.994 4.15056 14.5 6.11821 14.5 8C14.5 9.88152 13.9937 11.8485 12.916 13.3018L11.9697 12.4736C12.8014 11.3107 13.25 9.69713 13.25 8C13.25 6.30256 12.8017 4.68838 11.9697 3.52539L12.916 2.69727ZM11.083 4.30176C11.81 5.39923 12.1641 6.74608 12.167 8.05371C12.1698 9.34354 11.8303 10.6625 11.1133 11.7236L10.1602 10.8906C10.6565 10.0952 10.9192 9.09776 10.917 8.05664C10.9147 7.00418 10.6421 5.97257 10.1299 5.13574L11.083 4.30176ZM9.42188 5.75488C9.52059 5.9586 9.60105 6.17355 9.66309 6.39062C9.80645 6.89238 9.875 7.45139 9.875 8C9.875 8.54861 9.80645 9.10762 9.66309 9.60938C9.60113 9.82617 9.52041 10.0407 9.42188 10.2441L8.42578 9.37207C8.43704 9.33733 8.45136 9.30258 8.46191 9.26562C8.56851 8.89244 8.625 8.45129 8.625 8C8.625 7.54871 8.56851 7.10756 8.46191 6.73438C8.45127 6.6971 8.43714 6.66197 8.42578 6.62695L9.42188 5.75488Z"/>
</svg>
